SplineFontDB: 3.2
FontName: Nak'Moshra-Archaic
FullName: Nak'Moshra-Archaic
FamilyName: Nak'Moshra
Weight: Regular
Copyright: Copyright (c) 2023, kroonhorstdino
Version: 001.000
ItalicAngle: 0
UnderlinePosition: -98.6328
UnderlineWidth: 49.8047
Ascent: 800
Descent: 200
InvalidEm: 0
sfntRevision: 0x00010000
LayerCount: 2
Layer: 0 0 "Back" 1
Layer: 1 0 "Fore" 0
XUID: [1021 386 -561932103 13392936]
StyleMap: 0x0040
FSType: 0
OS2Version: 4
OS2_WeightWidthSlopeOnly: 0
OS2_UseTypoMetrics: 1
CreationTime: 1686858542
ModificationTime: 1686913032
PfmFamily: 17
TTFWeight: 400
TTFWidth: 5
LineGap: 90
VLineGap: 0
Panose: 2 0 5 3 0 0 0 0 0 0
OS2TypoAscent: 800
OS2TypoAOffset: 0
OS2TypoDescent: -200
OS2TypoDOffset: 0
OS2TypoLinegap: 90
OS2WinAscent: 800
OS2WinAOffset: 0
OS2WinDescent: 200
OS2WinDOffset: 0
HheadAscent: 800
HheadAOffset: 0
HheadDescent: -200
HheadDOffset: 0
OS2SubXSize: 649
OS2SubYSize: 699
OS2SubXOff: 0
OS2SubYOff: 140
OS2SupXSize: 649
OS2SupYSize: 699
OS2SupXOff: 0
OS2SupYOff: 479
OS2StrikeYSize: 50
OS2StrikeYPos: 259
OS2CapHeight: 700
OS2XHeight: 790
OS2Vendor: 'PfEd'
OS2CodePages: 00000001.00000000
OS2UnicodeRanges: 00000001.00000000.00000000.00000000
MarkAttachClasses: 1
DEI: 91125
LangName: 1033 "" "" "" "FontForge 2.0 : Nak'Moshra-Archaic : 15-6-2023" "" "Version 001.000"
Encoding: UnicodeBmp
UnicodeInterp: none
NameList: AGL For New Fonts
DisplaySize: -128
AntiAlias: 1
FitToEm: 0
WinInfo: 56 14 6
BeginPrivate: 7
BlueValues 26 [-104 153 364 661 700 800]
BlueScale 10 0.00416667
BlueShift 2 10
StdHW 4 [21]
StdVW 4 [24]
StemSnapH 30 [2 10 16 21 30 35 44 60 67 86]
StemSnapV 19 [24 29 34 47 62 72]
EndPrivate
BeginChars: 65537 53

StartChar: .notdef
Encoding: 65536 -1 0
Width: 500
GlyphClass: 1
Flags: HMW
HStem: 0 50<100 400 100 450> 483 50<100 400 100 100>
VStem: 50 50<50 50 50 483> 400 50<50 483 483 483>
LayerCount: 2
Fore
SplineSet
50 0 m 1
 50 533 l 1
 450 533 l 1
 450 0 l 1
 50 0 l 1
100 50 m 1
 400 50 l 1
 400 483 l 1
 100 483 l 1
 100 50 l 1
EndSplineSet
Validated: 1
EndChar

StartChar: a
Encoding: 97 97 27
Width: 552
GlyphClass: 1
Flags: HMW
HStem: -100 21G<287 290> 640 20G<-201 -200> 698 0<-229 -229 -213 -213 -170 -170>
LayerCount: 2
Fore
SplineSet
410 19 m 0
 380 42 343 75 328 93 c 0
 313 111 284 141 265 162 c 2
 232 200 l 1
 238 207 l 2
 246 216 252 216 263 206 c 0
 268 201 300 179 334 156 c 2
 396 113 l 1
 412 90 l 2
 431 63 468 -11 468 -19 c 2
 468 -20 l 1
 464 -20 439 -4 410 19 c 0
23 15 m 2
 23 36 76 114 112 144 c 0
 193 211 207 220 217 220 c 2
 229 220 l 1
 215 200 l 2
 209 189 187 155 165 125 c 2
 126 70 l 1
 88 47 l 2
 67 35 45 19 37 16 c 2
 23 9 l 1
 23 15 l 2
204 232 m 0
 199 236 184 275 168 320 c 0
 152 365 124 442 106 493 c 0
 89 541 76 584 76 587 c 1
 78 587 96 556 117 515 c 0
 183 385 217 318 221 314 c 1
 223 314 l 2
 227 314 247 336 271 366 c 0
 328 437 384 498 420 528 c 2
 448 551 l 1
 434 554 l 2
 426 556 363 565 293 575 c 0
 141 598 59 613 54 618 c 0
 54 619 60 618 67 618 c 2
 101 618 l 2
 128 618 239 607 348 607 c 0
 457 607 551 596 557 594 c 0
 568 590 573 580 573 571 c 0
 573 557 564 540 545 531 c 0
 474 495 412 437 304 309 c 0
 249 245 230 225 218 225 c 0
 213 225 209 228 204 232 c 0
EndSplineSet
Validated: 1
EndChar

StartChar: b
Encoding: 98 98 28
Width: 537
GlyphClass: 1
Flags: HMW
HStem: 482 129<245 317> 568 20G<486 489>
VStem: 168 46<541 562 541 643> 178 144<258 309 219 333> 247 62<43 118 43 189> 247 74<29 238 189 238> 257 73<421 422 421 433>
LayerCount: 2
Fore
SplineSet
264 -169 m 0x48
 259 -148 247 -59 247 29 c 2
 247 189 l 1
 226 189 l 2
 222 188 217 188 214 188 c 0x64
 184 188 178 209 178 307 c 0x50
 178 360 176 406 173 409 c 2
 172 409 l 2
 166 409 139 390 111 368 c 0
 83 345 59 329 55 329 c 2
 54 329 l 1
 54 334 77 367 110 406 c 2
 168 480 l 1
 168 643 l 2
 168 704 166 747 166 772 c 0
 166 791 168 800 169 800 c 2
 170 800 l 1
 176 794 214 576 214 548 c 0
 214 534 224 540 236 560 c 0
 257 595 278 611 300 611 c 0
 335 611 336 593 336 514 c 2
 336 501 l 2
 336 461 330 428 330 422 c 2
 330 421 l 1xa2
 332 421 368 459 409 505 c 0
 457 558 483 588 488 588 c 0
 489 588 489 587 489 586 c 0
 489 578 458 525 392 420 c 2
 321 309 l 1
 321 238 l 2x50
 321 199 310 137 310 100 c 0
 310 -12 284 -185 278 -197 c 0
 277 -199 276 -200 275 -200 c 0
 272 -200 269 -190 264 -169 c 0x48
257 405 m 0x82
 257 460 254 482 246 482 c 0
 243 482 240 479 235 473 c 0
 231 469 230 463 230 451 c 0
 230 439 231 422 235 395 c 0
 240 358 247 327 250 327 c 0
 253 327 257 362 257 405 c 0x82
EndSplineSet
Validated: 1
EndChar

StartChar: c
Encoding: 99 99 29
Width: 894
GlyphClass: 1
Flags: HMW
HStem: 526 20G<426 426>
LayerCount: 2
Fore
SplineSet
755 -59 m 0
 695 -28 649 6 499 127 c 0
 430 182 371 225 367 223 c 0
 363 221 329 184 291 140 c 0
 253 96 219 62 217 64 c 0
 217 73 327 292 340 308 c 0
 344 313 358 316 369 316 c 2
 388 316 l 1
 415 294 l 2
 429 282 503 218 578 152 c 0
 718 30 822 -67 822 -77 c 0
 822 -81 820 -82 815 -82 c 0
 805 -82 785 -75 755 -59 c 0
803 90 m 0
 784 102 691 190 596 287 c 2
 423 462 l 1
 409 452 l 2
 401 446 330 383 254 311 c 0
 178 239 101 168 83 152 c 0
 62 133 47 124 44 124 c 1
 44 125 45 128 48 132 c 0
 76 169 154 264 208 327 c 0
 244 369 296 442 335 480 c 2
 393 537 l 2
 401 542 404 544 426 546 c 1
 453 543 l 1
 477 520 l 2
 539 461 789 134 821 101 c 0
 857 63 851 60 803 90 c 0
EndSplineSet
Validated: 33
EndChar

StartChar: d
Encoding: 100 100 30
Width: 744
GlyphClass: 1
Flags: HMW
HStem: 633 21G
VStem: 268 17<608 634 634 635 566 657> 279 10<417 447> 297 9<36 50> 306 4
LayerCount: 2
Fore
SplineSet
-31 -96 m 0xc0
 -31 -84 68 8 187 105 c 0
 272 174 289 189 289 204 c 2
 289 208 l 2
 287 218 279 284 279 353 c 0xa0
 279 541 277 526 211 580 c 0
 158 623 131 646 131 651 c 0
 131 652 131 652 132 652 c 0
 136 652 154 644 183 625 c 0
 220 602 256 580 261 577 c 0
 262 576 263 576 264 576 c 0
 268 576 268 585 268 608 c 2
 268 634 l 2
 268 680 267 698 274 700 c 2
 275 700 l 2
 281 700 284 683 284 635 c 2
 284 566 l 1
 306 549 l 2
 338 525 585 366 636 337 c 0
 673 316 691 299 691 281 c 0
 691 272 687 263 677 252 c 0
 667 241 661 240 639 240 c 2
 603 240 l 1
 563 240 l 2
 540 240 527 239 498 226 c 0
 472 215 418 188 378 166 c 2
 306 126 l 1xc8
 306 36 l 1
 297 -54 l 1
 297 27 l 2
 297 72 291 110 289 112 c 0xb0
 287 114 277 109 268 102 c 0
 259 95 190 49 115 0 c 0
 40 -49 -23 -93 -26 -97 c 0
 -29 -102 -31 -101 -31 -96 c 0xc0
363 244 m 0
 396 268 443 298 468 310 c 0
 493 322 513 332 513 333 c 0
 513 337 302 508 297 508 c 0xb0
 295 508 289 483 289 452 c 0
 289 382 300 200 303 200 c 0
 304 200 330 220 363 244 c 0
306 -82 m 0x88
 306 -74 308 -72 310 -78 c 0
 312 -83 311 -89 309 -91 c 0
 307 -93 306 -90 306 -82 c 0x88
EndSplineSet
Validated: 33
EndChar

StartChar: e
Encoding: 101 101 31
Width: 878
GlyphClass: 1
Flags: HMW
HStem: 398 21G
LayerCount: 2
Fore
SplineSet
238 20 m 1
 217 32 l 1
 158 139 l 2
 92 259 39 362 39 372 c 0
 39 389 57 369 145 253 c 0
 197 184 247 121 256 113 c 2
 271 98 l 1
 299 159 l 1
 382 336 415 401 424 409 c 2
 436 418 l 1
 430 390 l 2
 427 375 403 288 377 197 c 2
 330 32 l 1
 316 23 l 2
 308 18 291 12 279 10 c 2
 258 7 l 1
 238 20 l 1
811 152 m 0
 790 174 689 307 652 361 c 0
 640 378 621 411 611 434 c 0
 601 457 592 476 590 476 c 0
 588 476 572 453 553 425 c 0
 492 334 431 250 426 250 c 2
 426 250 l 1
 426 251 l 2
 426 260 453 322 514 456 c 0
 543 519 567 577 570 585 c 0
 575 599 589 605 605 605 c 0
 621 605 636 600 643 586 c 0
 647 577 657 548 666 521 c 0
 684 466 742 336 799 219 c 0
 820 176 837 139 838 136 c 0
 839 134 840 134 840 133 c 0
 840 132 839 131 838 131 c 0
 834 131 824 139 811 152 c 0
EndSplineSet
Validated: 37
EndChar

StartChar: f
Encoding: 102 102 32
Width: 726
GlyphClass: 1
Flags: HMW
HStem: -100 21G<309 313> 499 10 509 6 681 20G<298 311 311 324 324 324>
VStem: 295 29<360 368 315 417> 299 25<614 617 617 700>
LayerCount: 2
Fore
SplineSet
326 -85 m 0xd8
 326 -64 319 198 318 206 c 0
 318 207 313 208 305 208 c 0
 288 208 258 206 225 206 c 2
 195 206 l 2
 153 206 137 206 137 213 c 0
 137 217 142 224 154 234 c 0
 188 264 219 280 266 292 c 2
 314 304 l 1
 318 360 l 1
 318 417 l 1
 297 422 l 2
 286 425 228 428 166 428 c 0
 104 428 43 432 31 436 c 2
 10 442 l 1
 35 453 l 2
 49 459 119 479 188 496 c 2
 318 528 l 1xd8
 322 614 l 1
 322 700 l 1
 334 700 l 1
 348 700 l 1
 348 617 l 1xd4
 348 534 l 1
 385 528 l 2
 403 525 458 522 508 522 c 0
 558 522 617 518 641 515 c 2
 686 509 l 1xb8
 646 499 l 2
 625 493 550 474 482 458 c 0
 414 442 357 426 354 423 c 0
 351 420 348 396 348 368 c 2
 348 315 l 1
 377 315 l 2
 394 315 439 321 477 328 c 0
 515 335 584 341 631 341 c 2
 717 341 l 1
 703 324 l 2
 695 315 660 293 627 276 c 2
 568 245 l 1
 465 232 l 2
 409 225 360 218 354 216 c 2
 342 212 l 1
 342 56 l 2
 342 -42 339 -100 334 -100 c 0
 329 -100 326 -93 326 -85 c 0xd8
EndSplineSet
Validated: 1
EndChar

StartChar: g
Encoding: 103 103 33
Width: 792
GlyphClass: 1
Flags: HMW
HStem: 15 3 532 21G
VStem: 94 22 109 6<526 526> 721 17
LayerCount: 2
Fore
SplineSet
62 26 m 1xe8
 47 47 l 1
 51 68 l 2
 56 93 88 225 88 389 c 0xe8
 88 450 101 512 104 526 c 2
 110 552 l 1xd8
 110 497 l 2
 110 454 135 134 135 96 c 0
 135 91 147 85 164 83 c 0
 181 81 231 75 277 69 c 0
 468 44 628 21 631 18 c 0
 631 16 538 15 422 15 c 0
 305 15 179 10 143 10 c 2
 78 10 l 1
 62 26 l 1xe8
715 147 m 0
 709 161 696 229 686 300 c 0
 676 371 666 436 664 444 c 2
 660 460 l 1
 637 464 l 1
 376 510 256 535 256 540 c 1
 256 540 257 541 260 541 c 0
 316 541 708 538 719 532 c 0
 726 528 734 519 738 512 c 2
 746 499 l 1
 746 409 l 2
 746 360 731 275 731 221 c 0
 731 167 729 123 727 123 c 0
 725 123 721 133 715 147 c 0
EndSplineSet
Validated: 1
EndChar

StartChar: h
Encoding: 104 104 34
Width: 875
GlyphClass: 1
Flags: HMW
HStem: 550 30<-52 -36> 556 33<33 81 33 93> 560 67<511 526 526 675 511 750> 564 44<180 272 212 270>
VStem: -29 62<686 782> -12 45<236 243 243 428> 272 24<608 676 676 682 682 748> 287 26
LayerCount: 2
Fore
SplineSet
533 -140 m 0x21
 524 -125 514 -27 514 168 c 0x21
 514 279 500 404 500 444 c 2
 498 517 l 1
 435 517 l 2x12
 400 517 352 509 328 509 c 2
 285 509 l 1
 285 227 l 1
 285 -54 l 1
 286 -60 l 1
 280 -64 272 -65 269 -62 c 0
 265 -58 245 87 245 356 c 0x46
 245 432 236 499 234 502 c 0
 233 503 228 503 218 503 c 0
 199 503 165 502 126 502 c 0
 62 502 30 509 30 516 c 0
 30 523 67 531 136 531 c 2
 232 531 l 1
 229 626 l 1
 229 721 l 1x88
 245 727 l 2x84
 248 728 250 728 254 728 c 0
 261 728 267 726 272 722 c 2
 285 713 l 1
 285 622 l 1
 285 539 l 1
 339 539 l 1x48
 446 556 l 1
 500 556 l 1
 500 622 l 1
 500 689 l 1
 511 685 l 1
 522 682 l 1
 522 617 l 1
 522 551 l 1x1a
 548 557 l 2
 559 560 634 573 715 573 c 2
 863 573 l 1
 893 552 l 2
 910 541 926 526 928 522 c 2
 930 512 l 1
 729 512 l 1
 527 512 l 1
 527 377 l 2
 527 299 535 151 535 47 c 0
 535 -69 537 -118 537 -136 c 0
 537 -142 538 -143 537 -143 c 0
 536 -143 535 -143 533 -140 c 0x21
EndSplineSet
Validated: 1
EndChar

StartChar: i
Encoding: 105 105 35
Width: 677
GlyphClass: 1
Flags: HMW
HStem: -100 21G<256 259> 338 20G<40 45> 679 20G<281 281>
VStem: 32 21<350 351> 262 72<529 669>
LayerCount: 2
Fore
SplineSet
141 121 m 0
 81 242 32 345 32 349 c 0
 32 353 36 357 42 357 c 0
 48 357 52 356 52 353 c 0
 52 348 248 -80 257 -95 c 0
 259 -98 260 -100 257 -100 c 0
 254 -100 201 0 141 121 c 0
257 -47 m 0
 249 -22 248 225 248 333 c 0
 248 392 262 492 262 555 c 2
 262 669 l 1
 271 685 l 1
 281 698 l 1
 305 696 l 1
 330 696 l 1
 397 595 l 2
 529 400 613 286 630 278 c 2
 646 270 l 1
 631 270 l 1
 615 270 l 1
 571 311 l 2
 547 334 486 400 436 456 c 0
 386 512 343 558 340 558 c 0
 337 558 334 554 334 548 c 0
 334 511 312 252 303 185 c 0
 291 92 267 -55 264 -58 c 0
 263 -59 259 -54 257 -47 c 0
EndSplineSet
Validated: 1
EndChar

StartChar: k
Encoding: 107 107 37
Width: 578
GlyphClass: 1
Flags: HMW
HStem: -100 21G<-84 -84> 7 4<189 197> 531 20G<222 230 230 230>
VStem: 207 23<317 480>
LayerCount: 2
Fore
SplineSet
-33 -93 m 1
 -40 -85 l 1
 30 0 l 2
 68 48 119 114 142 143 c 0
 186 199 213 228 222 228 c 0
 223 228 223 227 224 226 c 0
 225 225 225 224 225 222 c 0
 225 204 190 155 99 47 c 0
 40 -23 -14 -85 -19 -90 c 2
 -27 -100 l 1
 -33 -93 l 1
246 11 m 2
 246 11 245 12 245 14 c 0
 245 37 264 201 264 434 c 0
 264 488 266 544 266 549 c 0
 266 554 273 551 278 551 c 2
 287 551 l 1
 287 480 l 2
 287 441 285 353 285 284 c 0
 284 47 285 30 250 7 c 0
 248 6 247 9 246 11 c 2
316 333 m 0
 316 353 366 420 465 535 c 0
 569 656 609 700 617 700 c 2
 618 700 l 1
 618 697 l 2
 618 686 604 653 589 632 c 0
 555 584 388 377 371 362 c 0
 346 340 329 328 321 328 c 0
 318 328 316 330 316 333 c 0
EndSplineSet
Validated: 1
EndChar

StartChar: l
Encoding: 108 108 38
Width: 939
GlyphClass: 1
Flags: HMW
HStem: 337 21<850 912>
VStem: 912 38<314 323 323 337 337 337>
LayerCount: 2
Fore
SplineSet
792 280 m 2
 791 328 l 1
 754 328 l 2
 699 328 545 322 432 322 c 0
 408 322 252 328 186 328 c 2
 49 328 l 1
 50 353 l 1
 50 364 l 1
 76 364 l 1
 106 364 l 2
 109 363 116 363 127 363 c 0
 178 363 310 367 473 368 c 0
 684 369 758 365 758 365 c 2
 836 365 l 1
 830 325 l 2
 827 307 804 276 795 276 c 0
 793 276 792 277 792 280 c 2
EndSplineSet
Validated: 33
EndChar

StartChar: m
Encoding: 109 109 39
Width: 765
GlyphClass: 1
Flags: HMW
HStem: 360 21G
VStem: 374 72<543 708 708 708> 603 72
LayerCount: 2
Fore
SplineSet
589 -72 m 1
 576 -53 l 1
 584 -15 l 2
 599 51 600 193 600 348 c 2
 600 498 l 1
 623 565 l 2
 636 602 650 643 653 656 c 2
 658 680 l 1
 663 668 l 2
 665 661 672 653 678 648 c 2
 688 640 l 1
 688 564 l 1
 698 488 l 1
 684 398 l 2
 673 330 672 257 672 138 c 2
 672 23 l 1
 672 -71 l 1
 660 -82 l 2
 652 -88 636 -92 624 -92 c 2
 603 -92 l 1
 589 -72 l 1
360 -45 m 2
 345 -29 l 1
 354 37 l 2
 359 73 374 144 374 193 c 2
 374 282 l 1
 248 185 l 2
 179 131 111 79 99 69 c 0
 87 59 74 50 70 50 c 0
 65 50 62 51 62 54 c 0
 62 64 100 97 219 197 c 0
 235 210 267 237 291 258 c 0
 325 287 340 298 357 298 c 0
 359 298 362 297 365 297 c 0
 368 297 371 370 371 461 c 2
 371 626 l 1
 381 635 l 2
 386 640 396 645 403 645 c 0
 410 645 421 659 428 676 c 0
 435 693 446 708 452 708 c 2
 462 708 l 1
 452 698 l 1
 443 689 l 1
 443 327 l 1
 443 -36 l 1
 430 -48 l 2
 422 -56 410 -61 397 -61 c 0
 383 -61 369 -55 360 -45 c 2
-56 152 m 0
 -56 156 -33 195 -5 238 c 2
 47 317 l 1
 132 385 l 2
 179 423 228 458 239 463 c 0
 246 466 255 468 263 468 c 0
 275 468 283 465 283 461 c 0
 283 460 283 458 280 456 c 0
 276 453 238 405 197 350 c 2
 122 250 l 1
 44 198 l 2
 -10 162 -38 146 -50 146 c 0
 -54 146 -56 148 -56 152 c 0
EndSplineSet
Validated: 1
EndChar

StartChar: n
Encoding: 110 110 40
Width: 787
GlyphClass: 1
Flags: HMW
HStem: 312 35<177 190 190 222 222 234> 318 21<513 522 522 551> 325 4 329 2 534 20G<224 242>
VStem: 747 34 775 16
LayerCount: 2
Fore
SplineSet
767 -34 m 0x0a
 763 -10 738 374 738 452 c 2
 738 495 l 1x0c
 749 508 l 2
 756 515 765 519 767 517 c 0x0a
 769 515 772 440 772 351 c 0x0c
 772 262 782 132 782 64 c 2
 782 -59 l 1
 778 -59 l 2
 773 -59 769 -47 767 -34 c 0x0a
555 3 m 0
 550 9 507 66 460 130 c 2
 374 245 l 1
 213 245 l 2
 124 245 40 233 29 231 c 0
 -8 224 -29 263 3 280 c 1
 18 280 l 1
 181 280 l 2x88
 271 280 345 273 347 275 c 0
 349 277 320 320 283 370 c 0
 219 458 205 487 227 487 c 0
 240 487 269 453 345 352 c 2
 402 272 l 1
 513 272 l 2x48
 573 272 626 270 630 269 c 0
 634 268 664 268 678 265 c 0x18
 695 265 698 263 710 263 c 1
 658 259 l 2x28
 630 257 568 252 525 252 c 0x48
 482 252 443 246 438 243 c 2
 429 237 l 1
 501 144 l 2
 541 92 574 48 575 46 c 0
 576 44 584 47 591 53 c 2
 603 62 l 1
 597 33 l 2
 594 17 590 2 588 -1 c 0
 583 -10 566 -8 555 3 c 0
EndSplineSet
Validated: 33
EndChar

StartChar: o
Encoding: 111 111 41
Width: 798
GlyphClass: 1
Flags: HMW
VStem: 100 208<221 257>
LayerCount: 2
Fore
SplineSet
595 157 m 0
 561 161 544 176 538 207 c 0
 535 220 524 243 511 256 c 2
 485 281 l 1
 491 297 l 2
 494 306 503 313 511 313 c 0
 519 313 534 317 544 322 c 2
 563 330 l 1
 626 321 l 1
 690 312 l 1
 720 293 l 1
 749 274 l 1
 749 251 l 1
 749 228 l 1
 724 214 l 2
 711 207 693 193 683 184 c 0
 663 165 637 151 628 153 c 0
 625 154 610 155 595 157 c 0
63 198 m 2
 55 206 50 218 50 225 c 0
 50 243 102 337 120 353 c 0
 144 373 159 370 210 332 c 2
 258 298 l 1
 258 257 l 2
 258 235 255 212 251 206 c 0
 243 193 190 182 128 182 c 2
 81 182 l 1
 63 198 l 2
EndSplineSet
Validated: 33
EndChar

StartChar: p
Encoding: 112 112 42
Width: 645
GlyphClass: 1
Flags: HMW
HStem: 209 5 539 16 556 14<253 262> 572 11<541 541> 593 20G<248 248>
VStem: 238 47 244 4 248 4
LayerCount: 2
Fore
SplineSet
247 -18 m 0xfc
 245 -12 240 123 238 277 c 0xfc
 236 431 223 548 221 550 c 0
 218 553 233 551 84 539 c 0
 54 537 -71 538 -71 542 c 0
 -71 546 -22 552 39 555 c 0
 100 558 170 562 195 565 c 2
 241 570 l 1
 244 595 l 1
 248 612 l 1xfa
 252 596 l 1xf9
 253 569 l 1
 305 575 l 2
 311 576 413 583 479 583 c 2
 600 583 l 1
 541 572 l 2
 504 566 440 561 383 558 c 0
 348 556 476 568 262 556 c 1
 262 521 l 2
 262 501 273 393 279 278 c 0
 285 163 288 47 285 23 c 2
 279 -23 l 1
 265 -35 l 2
 259 -40 249 -24 247 -18 c 0xfc
560 192 m 2
 448 209 l 1
 468 214 l 2
 479 217 535 221 593 224 c 2
 699 229 l 1
 714 218 l 1
 729 207 l 1
 720 192 l 2
 708 172 691 173 560 192 c 2
EndSplineSet
Validated: 33
EndChar

StartChar: q
Encoding: 113 113 43
Width: 849
GlyphClass: 1
Flags: HMW
HStem: 65 6 241 86<510 518> 251 53 427 20G<157 157>
VStem: 147 15<433 435>
LayerCount: 2
Fore
SplineSet
54 14 m 0x98
 47 18 38 28 34 36 c 2
 26 50 l 1
 55 143 l 2
 71 194 96 278 111 330 c 0
 126 382 142 429 147 435 c 2
 157 446 l 1
 162 433 l 2
 165 426 157 348 145 259 c 0
 133 170 125 96 126 95 c 0
 128 93 403 75 491 71 c 0
 508 70 518 68 513 65 c 0
 501 59 346 39 237 29 c 0
 190 25 135 18 114 14 c 0
 68 5 70 5 54 14 c 0x98
787 20 m 0
 780 27 770 102 767 223 c 0
 762 427 745 504 772 491 c 0
 781 487 811 101 806 75 c 0
 805 71 790 17 787 20 c 0
430 251 m 0xb8
 321 269 314 272 312 285 c 0
 311 292 316 300 323 304 c 0xb8
 339 312 453 327 502 327 c 0
 552 327 681 271 661 258 c 0
 651 252 553 240 518 241 c 0xd8
 502 241 462 246 430 251 c 0xb8
EndSplineSet
Validated: 33
EndChar

StartChar: r
Encoding: 114 114 44
Width: 781
GlyphClass: 1
Flags: HMW
HStem: -65 45 158 30<237 297> 401 26G<317 317>
VStem: 297 29<69 162 158 162> 310 6
LayerCount: 2
Fore
SplineSet
32 60 m 0xf0
 20 77 19 94 30 111 c 2
 37 125 l 1
 19 224 l 2
 -9 369 1 425 58 459 c 0
 97 480 128 485 227 480 c 2
 312 475 l 1
 306 468 l 2
 303 465 271 457 236 452 c 0
 139 437 117 429 99 408 c 0
 79 382 77 379 102 355 c 0
 127 331 126 312 105 295 c 2
 89 282 l 1
 102 222 l 2
 110 188 117 151 117 140 c 2
 117 121 l 1
 132 118 l 2
 157 113 360 84 396 83 c 2
 422 82 l 1
 422 157 l 1
 422 231 l 1xf0
 342 231 l 1
 262 231 l 1
 260 238 l 2
 257 248 302 255 372 255 c 2
 425 255 l 1
 426 313 l 2
 426 345 430 392 433 413 c 2
 438 453 l 1xe8
 439 420 l 2
 440 402 441 357 443 320 c 2
 448 255 l 1
 657 256 l 2
 773 257 871 253 875 251 c 0
 879 249 883 240 883 232 c 0
 883 223 881 221 878 225 c 2
 873 233 l 1
 792 235 l 2
 748 236 653 237 579 236 c 2
 446 234 l 1
 450 182 l 2
 452 153 456 113 459 93 c 0
 462 73 463 54 462 53 c 0
 461 52 453 55 443 61 c 2
 425 74 l 1
 411 65 l 2
 400 60 180 47 60 46 c 0
 49 46 38 51 32 60 c 0xf0
EndSplineSet
Validated: 33
EndChar

StartChar: s
Encoding: 115 115 45
Width: 618
GlyphClass: 1
Flags: HMW
HStem: 399 21G<282 282>
LayerCount: 2
Fore
SplineSet
298 -68 m 0
 290 -54 236 67 178 202 c 0
 120 337 66 458 58 471 c 0
 41 497 23 544 23 567 c 0
 23 587 41 585 52 564 c 0
 120 436 302 101 312 85 c 2
 326 63 l 1
 341 94 l 2
 349 111 395 215 443 325 c 0
 526 517 594 666 600 666 c 0
 603 666 550 498 500 351 c 0
 480 292 441 174 413 87 c 0
 385 0 358 -76 352 -82 c 0
 334 -101 313 -95 298 -68 c 0
265 387 m 2
 249 409 252 424 279 473 c 0
 290 493 296 512 294 521 c 0
 289 540 306 579 324 587 c 0
 344 596 366 569 377 532 c 2
 381 519 l 1
 388 497 l 1
 390 491 l 1
 390 484 l 1
 390 481 l 1
 394 451 l 1
 398 420 l 1
 386 399 l 1
 374 380 l 1
 327 373 l 1
 279 367 l 1
 265 387 l 2
EndSplineSet
Validated: 33
EndChar

StartChar: t
Encoding: 116 116 46
Width: 892
GlyphClass: 1
Flags: HMW
HStem: -37 4 219 26 238 2
VStem: 48 51<392 418> 82 35
LayerCount: 2
Fore
SplineSet
136 -31 m 0xc8
 124 -17 82 175 82 215 c 2
 82 227 l 1xc8
 65 231 l 2
 56 233 46 236 45 238 c 0
 44 240 49 241 56 240 c 0
 63 239 70 239 72 242 c 0
 74 245 70 282 62 323 c 0
 54 364 48 403 48 410 c 0
 48 426 64 435 85 429 c 2
 101 424 l 1
 99 392 l 2xb0
 98 374 100 335 104 303 c 2
 111 245 l 1
 161 241 l 2
 209 237 399 238 667 246 c 0
 735 248 756 243 754 241 c 0
 746 234 641 203 552 196 c 0
 455 189 342 183 166 213 c 0
 140 218 119 221 117 219 c 0
 114 216 141 15 148 -11 c 2
 152 -27 l 1
 166 -30 l 1
 179 -33 l 1
 169 -37 l 2
 153 -43 145 -42 136 -31 c 0xc8
836 62 m 0
 832 98 819 191 811 259 c 0
 794 409 792 475 801 450 c 0
 803 444 854 78 847 30 c 0
 846 23 847 10 844 10 c 0
 841 10 840 26 836 62 c 0
EndSplineSet
Validated: 33
EndChar

StartChar: u
Encoding: 117 117 47
Width: 949
GlyphClass: 1
Flags: HMW
HStem: 381 20G<240 288 288 324>
LayerCount: 2
Fore
SplineSet
677 -34 m 2
 663 -18 l 1
 668 72 l 2
 670 122 675 228 677 308 c 0
 685 554 693 614 714 565 c 0
 721 549 738 366 762 43 c 2
 767 -27 l 1
 751 -38 l 2
 729 -54 694 -52 677 -34 c 2
310 131 m 0
 277 149 214 205 197 231 c 2
 183 252 l 1
 203 309 l 2
 214 341 226 375 231 384 c 2
 240 400 l 1
 288 400 l 2
 359 400 442 379 495 349 c 0
 553 316 573 297 573 274 c 0
 573 252 479 154 438 133 c 0
 401 114 344 113 310 131 c 0
EndSplineSet
Validated: 33
EndChar

StartChar: v
Encoding: 118 118 48
Width: 916
GlyphClass: 1
Flags: HMW
HStem: 336 23 413 21G<-56 -56>
VStem: 834 21
LayerCount: 2
Fore
SplineSet
846 -33 m 0
 842 -27 837 83 834 211 c 0
 831 339 826 486 824 539 c 0
 822 592 823 641 828 648 c 2
 836 661 l 1
 862 654 l 1
 888 648 l 1
 882 627 l 2
 877 608 861 281 855 42 c 0
 854 -5 850 -39 846 -33 c 0
-3 344 m 0
 -12 363 -18 397 -18 403 c 2
 -18 413 l 1
 65 407 l 2
 111 403 234 397 334 387 c 0
 434 377 637 370 709 359 c 0
 809 343 735 336 732 336 c 2
 276 346 l 1
 32 367 l 1
 60 302 l 2
 73 271 14 308 -3 344 c 0
EndSplineSet
Validated: 33
EndChar

StartChar: w
Encoding: 119 119 49
Width: 933
GlyphClass: 1
Flags: HMW
HStem: 125 12 129 46 135 57 152 3 155 6 289 22 297 60 327 10 450 20G<892 892>
VStem: 888 4 892 3
LayerCount: 2
Fore
SplineSet
-7 131 m 2x8080
 -5 134 7 137 19 137 c 0
 31 137 48 140 56 142 c 2
 70 146 l 1
 43 147 l 2
 27 148 0 150 -17 152 c 2
 -48 155 l 1x9080
 32 161 l 2x0880
 76 165 176 171 254 175 c 0x4080
 332 179 425 186 461 189 c 0
 497 192 532 193 539 191 c 0
 560 186 562 141 542 135 c 0x2080
 537 134 411 131 262 129 c 2x4080
 -11 125 l 1
 -7 131 l 2x8080
859 138 m 2
 851 148 l 1
 856 193 l 2
 859 218 867 284 873 340 c 0
 879 396 886 447 888 455 c 2
 892 470 l 1x00c0
 895 446 l 2x00a0
 897 433 899 402 900 377 c 0
 902 352 905 289 908 239 c 2
 915 148 l 1
 905 138 l 2
 893 125 871 125 859 138 c 2
208 289 m 0x0480
 202 290 196 294 196 296 c 0
 196 302 210 305 282 312 c 0
 349 319 357 327 298 327 c 0
 278 327 264 329 264 332 c 0
 264 335 266 337 270 337 c 0x0580
 278 337 600 351 705 356 c 2x0280
 783 359 l 1
 791 350 l 2
 795 345 798 334 798 326 c 2
 798 312 l 1x0480
 785 304 l 1
 774 297 l 1x0280
 525 294 l 2
 388 292 264 290 248 289 c 0
 232 288 214 288 208 289 c 0x0480
EndSplineSet
Validated: 33
EndChar

StartChar: x
Encoding: 120 120 50
Width: 878
GlyphClass: 1
Flags: HMW
HStem: 256 86<503 544 544 570 503 503> 270 60<334 342> 288 27<25 64 52 64 52 111> 319 17<973 974 951 1000 973 973> 476 20G<323 328>
VStem: 294 22 294 31<34 183 120 128> 311 23<400 408 329 436> 441 62<242 248 248 256> 454 48<394 414 342 453>
LayerCount: 2
Fore
SplineSet
435 17 m 2x8880
 423 29 l 1
 426 54 l 2
 432 97 441 214 441 242 c 2
 441 248 l 1
 441 259 l 1
 388 266 l 2
 369 269 352 270 342 270 c 0
 337 270 334 271 333 270 c 0
 331 268 325 214 325 151 c 0x4a80
 325 88 319 35 316 32 c 0x4c
 313 29 306 28 301 30 c 2
 294 34 l 1
 294 108 l 2
 294 148 305 202 305 228 c 2
 305 274 l 1
 291 274 l 2
 273 274 154 288 111 288 c 2
 50 288 l 2
 0 288 0 297 0 300 c 0
 0 314 45 315 59 315 c 0x2a
 71 315 96 321 117 328 c 2
 155 340 l 1
 204 340 l 2
 231 340 264 338 278 335 c 2
 304 330 l 1
 307 342 l 2x8a
 308 349 311 383 311 418 c 0
 311 453 316 485 318 489 c 0
 320 493 322 495 324 495 c 0
 331 495 334 467 334 408 c 2
 334 329 l 1
 388 329 l 2x49
 418 329 443 333 444 334 c 0
 445 335 454 372 454 415 c 0
 454 491 460 505 469 505 c 0
 471 505 473 505 475 504 c 2
 485 500 l 1
 489 499 l 2
 493 497 491 495 492 493 c 0
 500 468 502 478 502 414 c 2
 502 376 l 1
 502 342 l 1
 544 342 l 2x8940
 643 342 750 346 835 346 c 0
 885 346 941 336 962 336 c 0
 985 336 1000 330 1000 326 c 2
 1000 319 l 1
 973 319 l 1x1940
 946 323 l 1
 946 306 l 2
 946 296 941 284 935 279 c 2
 925 270 l 1
 781 270 l 2x4940
 702 270 607 256 570 256 c 2
 503 256 l 1
 503 139 l 1
 503 21 l 1
 487 12 l 2
 480 7 472 4 464 4 c 0
 454 4 443 9 435 17 c 2x8880
EndSplineSet
Validated: 1
EndChar

StartChar: y
Encoding: 121 121 51
Width: 796
GlyphClass: 1
Flags: HMW
HStem: 686 20G<385 385>
LayerCount: 2
Fore
SplineSet
327 -96 m 0
 320 -91 295 -53 270 -11 c 0
 187 129 133 213 122 222 c 0
 116 227 109 243 106 257 c 2
 101 282 l 1
 111 279 l 2
 120 276 267 106 296 65 c 0
 302 57 309 53 311 55 c 0
 313 57 318 102 322 153 c 0
 326 204 336 343 345 462 c 2
 360 678 l 1
 373 691 l 1
 385 705 l 1
 408 703 l 1
 431 700 l 1
 487 599 l 2
 601 391 660 291 678 282 c 2
 696 273 l 1
 680 273 l 1
 664 273 l 1
 621 320 l 2
 597 346 548 407 512 456 c 0
 476 505 444 545 441 545 c 0
 438 545 435 536 435 525 c 0
 435 514 425 372 413 212 c 2
 390 -79 l 1
 374 -92 l 2
 355 -108 344 -109 327 -96 c 0
EndSplineSet
Validated: 33
EndChar

StartChar: z
Encoding: 122 122 52
Width: 868
GlyphClass: 1
Flags: HMW
HStem: 116 58 118 44 123 5 339 10<286 291 291 308> 470 21G
LayerCount: 2
Fore
SplineSet
65 -10 m 1x18
 72 3 l 1
 66 9 l 2
 53 22 61 39 116 105 c 0
 147 142 203 210 240 256 c 2
 308 339 l 1
 290 339 l 2
 280 339 215 337 155 338 c 0
 95 339 52 344 50 346 c 0
 48 348 105 349 181 349 c 2
 316 349 l 1
 401 453 l 2
 448 510 487 554 487 551 c 0
 487 548 477 531 465 513 c 0
 442 477 439 470 453 481 c 2
 462 489 l 1
 455 479 l 2
 451 474 446 472 444 473 c 0
 439 476 425 455 427 448 c 0
 428 446 412 423 392 398 c 2
 356 352 l 1
 509 349 l 2
 593 347 653 346 650 344 c 0
 647 342 638 335 560 336 c 0
 482 337 363 340 357 339 c 0
 345 336 286 257 171 85 c 0
 136 33 108 -4 103 -4 c 0
 98 -4 90 -6 85 -6 c 0
 80 -6 73 -10 68 -14 c 2
 58 -22 l 1
 65 -10 l 1x18
859 116 m 0x98
 858 117 758 118 637 118 c 0x58
 514 118 416 120 414 123 c 0
 412 126 420 128 431 128 c 2
 450 128 l 1x38
 445 135 l 1
 439 143 l 1
 458 146 l 2
 481 149 607 158 699 162 c 0x58
 734 164 797 168 839 171 c 0
 881 174 922 176 929 174 c 0x98
 955 168 957 131 933 118 c 0x58
 924 113 863 112 859 116 c 0x98
428 451 m 0
 428 452 432 456 437 460 c 2
 447 468 l 1
 440 458 l 2
 433 449 428 447 428 451 c 0
467 502 m 0
 472 508 480 512 481 512 c 0
 482 512 478 508 473 502 c 0
 468 496 461 491 460 491 c 0
 459 491 462 496 467 502 c 0
489 528 m 0
 494 534 500 539 501 539 c 0
 502 539 499 534 494 528 c 0
 489 522 484 518 483 518 c 0
 482 518 484 522 489 528 c 0
502 546 m 0
 502 547 506 551 511 555 c 2
 520 562 l 1
 513 553 l 2
 506 544 502 542 502 546 c 0
EndSplineSet
Validated: 33
EndChar
